<svg width="280" height="280" viewBox="0 0 280 280" fill="none" xmlns="http://www.w3.org/2000/svg">
  <defs>
    <linearGradient id="solgrad" x1="0%" y1="0%" x2="100%" y2="100%">
      <stop offset="0%" stop-color="#9945FF"/>
      <stop offset="55%" stop-color="#A855F7"/>
      <stop offset="100%" stop-color="#14F195"/>
    </linearGradient>
    <linearGradient id="solgrad2" x1="0%" y1="0%" x2="100%" y2="100%">
      <stop offset="0%" stop-color="#14F195"/>
      <stop offset="100%" stop-color="#9945FF"/>
    </linearGradient>
    <clipPath id="iconclip">
      <rect x="0" y="0" width="280" height="280" rx="56"/>
    </clipPath>
  </defs>
  <rect x="0" y="0" width="280" height="280" rx="56" fill="#0B0B12"/>
  <g clip-path="url(#iconclip)">
    <rect x="0" y="0" width="280" height="280" fill="#0B0B12"/>
    <path d="M 0 230 L 280 150 L 280 280 L 0 280 Z" fill="#15131F" opacity="0.6"/>
    <g transform="translate(140,140)">
      <path d="M -78 -10 L -10 -78 L 78 10 L 10 78 Z" fill="url(#solgrad)"/>
      <path d="M -44 0 L 0 -44 L 44 0 L 0 44 Z" fill="#0B0B12"/>
      <rect x="-9" y="-9" width="18" height="18" rx="4" fill="url(#solgrad2)"/>
    </g>
  </g>
  <rect x="2" y="2" width="276" height="276" rx="54" fill="none" stroke="#9945FF" stroke-opacity="0.25" stroke-width="2"/>
</svg>
